<?xml version="1.0" standalone="no"?>
<!DOCTYPE svg PUBLIC "-//W3C//DTD SVG 20010904//EN"
 "http://www.w3.org/TR/2001/REC-SVG-20010904/DTD/svg10.dtd">
<svg version="1.0" xmlns="http://www.w3.org/2000/svg"
 width="2383.000000pt" height="2383.000000pt" viewBox="0 0 2383.000000 2383.000000"
 preserveAspectRatio="xMidYMid meet">
<metadata>
Created by potrace 1.14, written by Peter Selinger 2001-2017
</metadata>
<g transform="translate(0.000000,2383.000000) scale(0.100000,-0.100000)"
fill="#000000" stroke="none">
<path d="M1537 23602 c-119 -167 -202 -283 -242 -337 -48 -66 -256 -354 -275
-382 -14 -20 -121 -169 -398 -552 -62 -86 -123 -172 -136 -191 -13 -19 -104
-146 -202 -282 -99 -136 -186 -257 -194 -268 -8 -12 -32 -45 -53 -73 l-38 -52
83 -79 c46 -43 168 -160 272 -260 104 -99 213 -203 242 -231 29 -27 127 -122
219 -210 92 -88 193 -184 224 -214 31 -29 103 -99 162 -155 58 -55 201 -193
319 -306 118 -113 260 -248 315 -301 55 -53 118 -113 140 -134 22 -20 129
-123 239 -229 109 -105 208 -192 220 -194 11 -2 127 -23 256 -49 129 -25 246
-47 260 -50 14 -2 53 -10 88 -18 34 -8 77 -17 95 -20 28 -5 248 -51 287 -60
13 -3 180 -39 235 -51 11 -2 45 -9 75 -15 30 -5 69 -14 85 -19 17 -5 46 -12
65 -15 19 -3 62 -12 95 -20 33 -7 101 -23 150 -34 50 -11 150 -34 223 -51 74
-17 141 -33 150 -35 10 -2 85 -19 167 -38 83 -20 161 -38 175 -41 31 -6 205
-47 366 -87 66 -16 129 -31 140 -34 10 -2 60 -13 109 -25 50 -12 98 -24 107
-25 9 -2 43 -11 75 -19 51 -13 653 -162 693 -171 8 -2 62 -15 120 -30 58 -14
113 -28 122 -30 29 -6 831 -205 878 -217 25 -7 47 -13 50 -13 3 -1 58 -14 123
-30 94 -23 117 -33 114 -45 -6 -17 -94 -235 -108 -265 -25 -54 -150 -427 -180
-535 -7 -25 -14 -49 -15 -55 -17 -53 -60 -238 -84 -355 -29 -142 -44 -236 -65
-410 -27 -216 -22 -682 10 -865 3 -16 8 -50 11 -75 14 -103 77 -360 123 -497
123 -374 348 -783 604 -1099 230 -284 535 -595 832 -849 32 -27 63 -55 69 -60
29 -27 327 -274 476 -395 30 -25 57 -47 60 -50 3 -3 30 -25 60 -50 78 -64 91
-75 125 -104 l30 -25 -70 -2 c-38 0 -104 -2 -145 -4 -41 -1 -214 -5 -385 -9
-170 -4 -313 -10 -316 -12 -4 -2 -50 32 -104 76 -118 98 -205 155 -322 213
-144 72 -295 122 -438 146 -33 5 -76 13 -95 16 -74 13 -387 13 -500 -1 -495
-60 -1015 -250 -1604 -588 -93 -53 -200 -117 -240 -143 -99 -64 -269 -176
-281 -185 -5 -5 -59 -43 -120 -86 -208 -148 -498 -378 -669 -532 -124 -112
-172 -157 -281 -265 -132 -132 -239 -249 -335 -365 -34 -41 -69 -84 -79 -95
-40 -48 -171 -230 -242 -335 -224 -337 -437 -765 -594 -1195 -26 -71 -51 -139
-56 -150 -40 -95 -137 -469 -164 -635 -3 -19 -8 -42 -10 -50 -2 -8 -7 -40 -10
-70 -3 -30 -8 -62 -10 -70 -2 -8 -7 -46 -10 -85 -3 -38 -8 -83 -10 -100 -15
-106 -21 -495 -10 -665 12 -191 18 -255 35 -385 6 -38 12 -86 14 -105 3 -19 8
-53 11 -75 8 -48 73 -372 81 -400 3 -11 7 -29 9 -40 15 -69 93 -336 140 -478
166 -504 410 -1023 711 -1512 27 -44 52 -81 57 -83 4 -2 7 -8 7 -14 0 -18 303
-456 397 -573 292 -366 371 -458 622 -720 47 -50 127 -135 176 -190 50 -55
119 -131 155 -170 168 -179 202 -216 305 -324 236 -249 847 -852 979 -966 6
-5 34 -30 61 -55 28 -25 79 -70 114 -100 35 -30 69 -60 75 -66 6 -6 71 -58
144 -117 166 -133 332 -244 442 -296 97 -45 336 -135 419 -157 118 -33 199
-52 251 -60 19 -3 46 -8 60 -11 58 -13 281 -11 342 3 239 55 379 214 422 480
14 87 15 335 2 417 -3 20 -8 52 -11 70 -16 107 -36 196 -52 235 -43 105 -102
208 -187 327 -27 39 -82 133 -121 210 -90 176 -139 265 -183 334 -18 30 -37
61 -41 70 -29 68 -460 693 -511 741 -3 3 -41 50 -85 105 -75 94 -301 360 -342
402 -10 11 -65 71 -123 133 -176 190 -458 468 -670 661 l-95 87 -5 58 c-12
158 -3 562 14 664 3 14 7 48 11 75 9 76 44 249 71 355 87 336 214 629 412 955
389 638 755 1053 1244 1411 109 80 540 364 552 364 2 0 37 19 78 43 103 61
351 180 513 248 119 49 183 72 445 162 93 32 353 110 500 150 30 9 127 37 215
62 88 26 165 48 170 48 10 0 141 -13 200 -19 46 -5 276 -4 315 1 201 28 346
150 391 330 l12 47 236 -7 c234 -6 321 -9 641 -19 91 -3 248 -8 350 -11 102
-3 248 -8 325 -10 77 -3 223 -7 325 -10 257 -8 358 -12 485 -22 201 -14 692
-7 808 12 12 2 51 6 87 9 36 4 74 8 86 10 12 2 45 7 75 11 30 4 63 8 74 10 11
1 43 6 70 9 206 28 706 127 895 177 736 198 1472 625 2089 1214 145 139 228
225 370 382 l73 83 19 -24 c17 -22 62 -43 109 -53 8 -2 51 -3 95 -3 88 -1 186
22 311 70 43 16 82 30 86 30 4 0 19 5 35 12 15 6 33 12 38 14 6 1 55 17 110
34 101 32 337 96 387 105 16 3 56 12 90 19 35 8 81 18 103 21 135 22 205 31
205 27 0 -5 -138 -241 -161 -274 -11 -15 -19 -29 -19 -31 0 -3 -54 -96 -120
-207 -66 -111 -120 -203 -120 -205 0 -1 -29 -52 -65 -111 -36 -60 -70 -116
-75 -124 -18 -31 -196 -333 -210 -359 -9 -14 -23 -37 -31 -51 -18 -28 -256
-433 -273 -465 -6 -11 -19 -31 -27 -45 -9 -14 -55 -90 -101 -170 -47 -80 -226
-383 -398 -675 -340 -576 -404 -691 -478 -865 -93 -217 -168 -492 -188 -690
-10 -95 -10 -314 -2 -405 52 -534 358 -1042 852 -1414 190 -143 417 -272 626
-356 63 -25 124 -50 135 -55 72 -31 367 -112 477 -130 35 -5 74 -12 88 -15 14
-2 41 -7 60 -9 19 -3 51 -7 70 -10 82 -12 173 -17 324 -16 214 0 293 7 501 45
258 48 565 204 873 445 144 112 452 408 572 549 30 35 60 69 65 75 8 8 128
160 223 281 4 6 18 26 32 45 13 19 27 37 30 40 42 39 345 514 465 730 32 58
67 121 78 140 23 42 178 350 200 400 9 19 34 74 56 122 22 49 38 88 36 88 -3
0 3 15 13 33 10 17 29 61 42 97 13 36 26 70 30 75 9 13 127 352 157 450 21 68
102 402 107 439 4 27 9 52 10 55 2 3 7 26 10 51 3 25 8 54 10 65 7 37 20 154
33 300 16 180 9 654 -12 800 -2 16 -9 68 -15 115 -15 111 -21 154 -25 160 -2
3 -6 26 -10 50 -25 180 -156 611 -260 860 -54 128 -185 398 -235 485 -13 22
-34 58 -47 80 -12 22 -26 47 -30 55 -3 8 -27 47 -51 85 -249 392 -432 619
-736 914 -126 122 -120 117 -191 176 -33 28 -64 55 -70 61 -5 6 -35 30 -65 55
-30 24 -57 46 -60 50 -21 24 -519 386 -598 434 -10 6 -69 44 -132 86 -64 42
-201 132 -305 199 -105 67 -203 130 -220 141 -36 23 -403 264 -425 278 -8 6
-102 72 -207 147 l-193 137 -1 151 c-1 220 -15 398 -44 576 -3 14 -7 43 -10
65 -31 199 -132 575 -224 832 -89 248 -220 534 -319 696 -23 37 -42 71 -42 76
0 5 -4 11 -8 13 -4 2 -21 23 -38 48 -74 109 -90 130 -164 221 -104 125 -251
266 -381 362 -101 76 -143 109 -204 162 -385 335 -1371 1138 -1687 1373 -35
25 -65 49 -68 53 -6 8 -567 425 -685 510 -49 35 -94 68 -100 72 -5 5 -77 55
-160 113 -82 58 -158 111 -168 119 -9 8 -20 15 -23 15 -5 0 -64 40 -74 50 -14
14 -70 50 -79 50 -5 0 -11 3 -13 8 -2 6 -125 90 -199 137 -9 6 -27 17 -40 26
-150 100 -537 335 -665 404 -38 20 -73 41 -79 45 -20 16 -383 196 -465 232
-147 63 -351 122 -530 154 -14 2 -47 9 -75 14 -27 5 -68 12 -90 15 -23 3 -52
7 -65 10 -13 3 -42 7 -65 10 -22 3 -51 8 -65 10 -14 3 -50 7 -80 10 -30 3 -66
8 -80 10 -14 2 -54 6 -90 10 -36 4 -77 9 -92 10 -21 3 -28 -1 -29 -13 -1 -9
-2 -77 -3 -149 -1 -73 -4 -135 -7 -137 -2 -3 -29 -7 -59 -11 -166 -18 -249
-26 -300 -31 -25 -2 -65 -6 -90 -9 -25 -3 -67 -8 -95 -10 -73 -7 -156 -16
-185 -20 -14 -2 -56 -6 -93 -10 -37 -3 -76 -8 -85 -10 -10 -2 -47 -6 -83 -9
-36 -4 -76 -9 -90 -11 -13 -2 -55 -9 -94 -15 -114 -17 -261 -50 -322 -71 -31
-10 -57 -19 -59 -19 -1 0 -22 16 -46 36 -23 20 -63 53 -87 73 -24 20 -49 41
-55 46 -6 6 -38 33 -71 60 -72 60 -87 74 -190 161 -45 38 -105 89 -134 114
-29 25 -67 57 -85 72 -34 30 -42 33 -326 107 -107 28 -222 58 -255 66 -33 9
-67 18 -75 20 -8 2 -69 18 -135 35 -66 18 -196 52 -290 76 -309 80 -548 143
-700 183 -82 22 -240 63 -350 91 -110 29 -267 70 -350 92 -82 21 -157 41 -165
43 -8 2 -60 15 -115 30 -110 28 -127 33 -152 39 -25 7 -269 71 -613 161 -162
42 -302 79 -310 80 -8 2 -82 22 -165 43 -319 84 -538 142 -750 196 -121 32
-243 64 -271 72 -28 8 -61 17 -73 19 -27 6 -43 10 -116 30 -65 17 -247 65
-462 121 -76 19 -190 49 -253 66 -63 16 -122 32 -130 34 -8 2 -60 15 -115 30
-55 14 -107 28 -115 29 -8 2 -67 18 -130 35 -63 17 -125 33 -138 35 -12 3 -64
17 -115 31 -50 14 -103 27 -117 30 -14 3 -74 19 -135 35 -210 57 -603 159
-930 244 -173 45 -446 115 -630 164 -82 22 -203 53 -268 70 -65 17 -122 33
-126 35 -4 3 -42 -43 -84 -102z m18340 -9494 c-3 -8 -6 -5 -6 6 -1 11 2 17 5
13 3 -3 4 -12 1 -19z m-20 -90 c-3 -8 -6 -5 -6 6 -1 11 2 17 5 13 3 -3 4 -12
1 -19z"/>
</g>
</svg>
