<svg xmlns="http://www.w3.org/2000/svg" width="19.857" height="18.724" viewBox="0 0 19.857 18.724">
  <g id="Icon_feather-instagram" data-name="Icon feather-instagram" transform="translate(-0.833 -0.833)">
    <path id="Path_3" data-name="Path 3" d="M6.214,1.667h9.1a4.413,4.413,0,0,1,4.548,4.264V14.46a4.413,4.413,0,0,1-4.548,4.264h-9.1A4.413,4.413,0,0,1,1.667,14.46V5.931A4.413,4.413,0,0,1,6.214,1.667Z" fill="none" stroke="#000" stroke-linecap="round" stroke-linejoin="round" stroke-width="1.667"/>
    <path id="Path_4" data-name="Path 4" d="M13.333,9.475a3.333,3.333,0,1,1-2.808-2.808A3.333,3.333,0,0,1,13.333,9.475Z" transform="translate(0.767 0.194)" fill="none" stroke="#000" stroke-linecap="round" stroke-linejoin="round" stroke-width="1.667"/>
    <path id="Path_5" data-name="Path 5" d="M14.583,5.417h0" transform="translate(1.181 0.088)" fill="none" stroke="#000" stroke-linecap="round" stroke-linejoin="round" stroke-width="1.667"/>
  </g>
</svg>
