<?xml version="1.0" encoding="UTF-8" standalone="no"?>
<svg
   xmlns:dc="http://purl.org/dc/elements/1.1/"
   xmlns:cc="http://creativecommons.org/ns#"
   xmlns:rdf="http://www.w3.org/1999/02/22-rdf-syntax-ns#"
   xmlns:svg="http://www.w3.org/2000/svg"
   xmlns="http://www.w3.org/2000/svg"
   xmlns:sodipodi="http://sodipodi.sourceforge.net/DTD/sodipodi-0.dtd"
   xmlns:inkscape="http://www.inkscape.org/namespaces/inkscape"
   version="1.1"
   id="svg833"
   width="1000"
   height="1000"
   viewBox="0 0 1000 1000"
   sodipodi:docname="logo_ref.svg"
   inkscape:version="1.0.1 (3bc2e813f5, 2020-09-07)">
  <metadata
     id="metadata839">
    <rdf:RDF>
      <cc:Work
         rdf:about="">
        <dc:format>image/svg+xml</dc:format>
        <dc:type
           rdf:resource="http://purl.org/dc/dcmitype/StillImage" />
        <dc:title />
      </cc:Work>
    </rdf:RDF>
  </metadata>
  <defs
     id="defs837" />
  <sodipodi:namedview
     pagecolor="#ffffff"
     bordercolor="#666666"
     borderopacity="1"
     objecttolerance="10"
     gridtolerance="10"
     guidetolerance="10"
     inkscape:pageopacity="0"
     inkscape:pageshadow="2"
     inkscape:window-width="1920"
     inkscape:window-height="1017"
     id="namedview835"
     showgrid="false"
     inkscape:zoom="0.44547727"
     inkscape:cx="994.96326"
     inkscape:cy="451.3862"
     inkscape:window-x="-8"
     inkscape:window-y="-8"
     inkscape:window-maximized="1"
     inkscape:current-layer="g1219"
     inkscape:document-rotation="0" />
  <g
     inkscape:groupmode="layer"
     inkscape:label="Image"
     id="g841">
    <g
       id="g1219"
       transform="translate(49.004885,30.134699)">
      <g
         id="g1293"
         inkscape:export-filename="C:\Users\jacks\g1293.png"
         inkscape:export-xdpi="25"
         inkscape:export-ydpi="25">
        <g
           id="g1148"
           transform="translate(19.063667,-39.715973)">
          <path
             style="fill:#bfbfbf;fill-opacity:1;stroke:#000000;stroke-width:1;stroke-linecap:butt;stroke-linejoin:miter;stroke-miterlimit:4;stroke-dasharray:none;stroke-opacity:1"
             d="m 408.28021,502.0099 c 6.37843,-63.08192 29.42255,-95.3119 56.53296,-116.91777 l -9.53183,-14.16832 C 348.12104,354.46867 239.71459,319.29425 129.70672,298.56775 l 46.90477,-78.98318 334.36032,113.75704 21.22223,22.51351 c 19.56389,-4.62054 38.602,-9.8983 60.1697,-12.01408 l -4.56733,-18.17006 c 34.27541,8.47178 76.39399,4.274 96.90698,77.84331 16.60898,59.56771 -11.29175,103.74828 -39.71598,141.38886 -25.74214,34.08884 -60.07242,56.34067 -93.72969,63.54556 -46.40431,9.93361 -71.47943,8.11113 -92.14106,-3.17728 -37.04305,-20.23834 -55.8652,-53.52783 -50.83645,-103.26153 z"
             id="path1058"
             sodipodi:nodetypes="sccccccccsssss" />
          <path
             style="fill:#bfbfbf;fill-opacity:1;stroke:#000000;stroke-width:1px;stroke-linecap:butt;stroke-linejoin:miter;stroke-opacity:1"
             d="M 587.7964,325.67098 461.33627,230.24899 c 0,0 25.30737,2.273 37.29778,7.45111 54.22157,23.41585 148.15883,105.56637 148.15883,105.56637 -10.64437,-5.56024 -32.48723,-12.03525 -58.99648,-17.59549 z"
             id="path1060"
             sodipodi:nodetypes="ccscc" />
          <path
             style="fill:#bfbfbf;fill-opacity:1;stroke:#000000;stroke-width:1;stroke-linecap:butt;stroke-linejoin:miter;stroke-miterlimit:4;stroke-dasharray:none;stroke-opacity:1"
             d="m 460.11484,230.55192 -0.13286,9.28061 130.13161,95.02732 -2.31718,-9.18887 z"
             id="path1062"
             sodipodi:nodetypes="ccccc" />
          <path
             style="fill:#000000;stroke:#000000;stroke-width:1px;stroke-linecap:butt;stroke-linejoin:miter;stroke-opacity:1;fill-opacity:1"
             d="m 459.98197,239.83253 c -25.06196,2.73457 -48.33311,4.05143 -52.89325,8.88875 43.05869,38.65902 82.88029,60.12001 122.52378,102.36793 18.15723,-7.36649 30.65619,-11.33406 59.3096,-16.42794 z"
             id="path1064"
             sodipodi:nodetypes="ccccc" />
          <path
             style="fill:#bfbfbf;fill-opacity:1;stroke:#1a1a1a;stroke-width:1px;stroke-linecap:butt;stroke-linejoin:miter;stroke-opacity:1"
             d="m 529.6125,351.08921 2.58154,4.76591 c 25.37713,-5.84916 48.67016,-10.97582 60.1697,-12.01408 l -2.25016,-8.98119 c -21.47211,2.69923 -41.46012,8.48083 -60.50108,16.22936 z"
             id="path1066"
             sodipodi:nodetypes="ccccc" />
          <path
             style="fill:#bfbfbf;fill-opacity:1;stroke:#000000;stroke-width:1px;stroke-linecap:butt;stroke-linejoin:miter;stroke-opacity:1"
             d="m 176.61148,219.58457 -72.55563,-65.48659 282.77773,73.87171 c 52.37414,45.00657 133.67246,107.55733 145.36046,127.88543 z"
             id="path1068"
             sodipodi:nodetypes="ccccc" />
          <path
             style="fill:#1a1a1a;stroke:#000000;stroke-width:1px;stroke-linecap:butt;stroke-linejoin:miter;stroke-opacity:1"
             d="M 129.70672,298.56775 53.665834,225.81548 167.99856,235.11856 Z"
             id="path1072"
             sodipodi:nodetypes="cccc" />
          <path
             style="fill:#000000;stroke:#000000;stroke-width:1px;stroke-linecap:butt;stroke-linejoin:miter;stroke-opacity:1"
             d="m 104.05585,154.09798 -50.836445,70.69443 114.779165,10.32615 8.61292,-15.53399 z"
             id="path1074" />
          <path
             style="fill:#bfbfbf;fill-opacity:1;stroke:#000000;stroke-width:1px;stroke-linecap:butt;stroke-linejoin:miter;stroke-opacity:1"
             d="M 455.28134,370.92381 300.42312,339.09458 c -45.41567,105.21396 21.95213,147.57494 63.65392,182.69563 l 56.29731,47.41282 c -16.99399,-38.974 -20.81555,-119.97681 44.43882,-184.1109 z"
             id="path1078"
             sodipodi:nodetypes="ccsccc" />
          <path
             style="fill:#cccccc;fill-opacity:1;stroke:#000000;stroke-width:1px;stroke-linecap:butt;stroke-linejoin:miter;stroke-opacity:1"
             d="m 363.79831,521.47073 -31.37562,0.79432 81.81491,76.25467 44.48189,6.75171 c -10.94006,-7.41867 -21.26821,-13.30754 -38.34515,-36.0684 z"
             id="path1080"
             sodipodi:nodetypes="cccccc" />
          <path
             style="fill:#cccccc;fill-opacity:1;stroke:#000000;stroke-width:1px;stroke-linecap:butt;stroke-linejoin:miter;stroke-opacity:1"
             d="m 414.23761,598.51972 0.38961,13.41831 74.14027,2.31688 c -9.06581,-1.46282 -19.30023,-3.78295 -30.048,-8.98348 z"
             id="path1082"
             sodipodi:nodetypes="ccccc" />
          <path
             style="fill:#000000;stroke:#000000;stroke-width:1px;stroke-linecap:butt;stroke-linejoin:miter;stroke-opacity:1"
             d="m 330.93859,521.22854 69.18624,64.19626 14.11278,13.09492 0.38961,13.41831 c -2.76974,14.78439 -16.25929,12.7234 -29.20677,11.51421 -19.10192,5.79626 -42.53589,10.68957 -65.73189,25.49219 -17.32122,11.05362 -36.09512,23.23184 -57.27355,61.00478 -2.18347,3.89435 -28.41988,50.18024 1.12333,102.2237 10.90117,19.20354 19.82936,14.94625 33.33046,23.86097 12.17663,8.04019 27.7503,26.81591 29.57644,36.23759 8.22084,42.41418 -18.44169,39.61506 -45.49517,28.08343 -16.41246,-6.99586 -55.19709,-47.02311 -77.51027,-71.8936 -49.89035,-50.40189 -83.30398,-127.36877 -61.21573,-193.40545 8.73235,-25.3406 20.81253,-50.47576 48.29736,-75.63384 30.49376,-27.91229 100.13867,-75.56693 140.41716,-38.19347 z"
             id="path1086"
             sodipodi:nodetypes="sccccssssssccss" />
          <path
             style="fill:#666666;fill-opacity:1;stroke:none;stroke-width:1px;stroke-linecap:butt;stroke-linejoin:miter;stroke-opacity:1"
             d="m 250.65405,771.13411 c 29.05029,25.88147 53.2975,54.95784 67.5768,85.05959 -38.75742,-20.97129 -67.79704,-46.20712 -67.5768,-85.05959 z"
             id="path1088"
             sodipodi:nodetypes="ccc" />
        </g>
        <g
           id="g1200">
          <path
             style="fill:#4d4d4d;fill-opacity:1;stroke:none;stroke-width:1px;stroke-linecap:butt;stroke-linejoin:miter;stroke-opacity:1"
             d="m 710.91593,502.00991 -62.75124,106.43881 c -55.51451,94.16385 90.60078,145.85464 120.73656,84.99218 l 40.51029,-81.81491 c 20.33561,-41.06996 9.44942,-104.01599 -46.07053,-111.99904 -16.73602,-2.90071 -33.60912,-5.11601 -52.42508,2.38296 z"
             id="path1171"
             sodipodi:nodetypes="cssscc" />
          <path
             style="fill:#000000;stroke:#000000;stroke-width:1px;stroke-linecap:butt;stroke-linejoin:miter;stroke-opacity:1"
             d="m 709.09464,403.60652 c 33.68249,25.42289 73.04348,41.38162 98.72826,80.13404 23.77097,35.86493 29.14758,70.06518 23.82958,103.26153 -6.90205,43.08442 -47.54482,114.29993 -89.04472,128.98532 -11.25486,3.98271 -23.98787,3.66313 -32.35571,2.72566 45.41534,-25.24574 69.58012,-68.6656 80.74346,-102.87386 17.56722,-46.97863 -5.55698,-92.39173 -34.71197,-103.43584 -24.89057,-9.05681 -45.08874,-12.25361 -84.68643,2.51423 -6.58031,2.45411 -17.06395,1.21761 -12.11337,-4.17018 27.49496,-36.27569 51.40637,-72.95738 49.6109,-107.1409 z"
             id="path1173"
             sodipodi:nodetypes="cssscccscc" />
        </g>
      </g>
    </g>
  </g>
</svg>
