<?xml version="1.0" encoding="UTF-8" standalone="no"?>
<svg
   xmlns:dc="http://purl.org/dc/elements/1.1/"
   xmlns:cc="http://creativecommons.org/ns#"
   xmlns:rdf="http://www.w3.org/1999/02/22-rdf-syntax-ns#"
   xmlns:svg="http://www.w3.org/2000/svg"
   xmlns="http://www.w3.org/2000/svg"
   xmlns:sodipodi="http://sodipodi.sourceforge.net/DTD/sodipodi-0.dtd"
   xmlns:inkscape="http://www.inkscape.org/namespaces/inkscape"
   width="720"
   height="720"
   viewBox="0 0 190.5 190.5"
   version="1.1"
   id="svg8"
   inkscape:version="1.0.1 (3bc2e813f5, 2020-09-07)"
   sodipodi:docname="referee_jersey_icon.svg">
  <defs
     id="defs2" />
  <sodipodi:namedview
     id="base"
     pagecolor="#ffffff"
     bordercolor="#666666"
     borderopacity="1.0"
     inkscape:pageopacity="0.0"
     inkscape:pageshadow="2"
     inkscape:zoom="0.7"
     inkscape:cx="922.93787"
     inkscape:cy="292.61726"
     inkscape:document-units="px"
     inkscape:current-layer="layer1"
     inkscape:document-rotation="0"
     showgrid="false"
     inkscape:window-width="1920"
     inkscape:window-height="1017"
     inkscape:window-x="-8"
     inkscape:window-y="-8"
     inkscape:window-maximized="1"
     units="px"
     width="720px" />
  <metadata
     id="metadata5">
    <rdf:RDF>
      <cc:Work
         rdf:about="">
        <dc:format>image/svg+xml</dc:format>
        <dc:type
           rdf:resource="http://purl.org/dc/dcmitype/StillImage" />
        <dc:title></dc:title>
      </cc:Work>
    </rdf:RDF>
  </metadata>
  <g
     inkscape:label="Vrstva 1"
     inkscape:groupmode="layer"
     id="layer1">
    <g
       id="g927"
       transform="matrix(0.91233516,0,0,0.91233516,1.2246161,-35.759045)">
      <path
         style="fill:#000000;stroke-width:0.264583"
         d="m 22.156352,247.03564 c -0.88523,-0.2684 -0.89105,-0.28064 -0.76372,-1.60575 0.12544,-1.30549 -0.30256,-4.22662 -0.87215,-5.95249 -0.23662,-0.71697 -0.45246,-0.89222 -1.26006,-1.02306 -1.47712,-0.23931 -3.1081,-0.88092 -3.58838,-1.41162 -0.66616,-0.7361 -3.77956,-10.26315 -3.98893,-12.20618 -0.37009,-3.43453 -1.25823,-8.07957 -1.62284,-8.4875 -0.4871897,-0.54508 -0.4746297,-0.65734 0.17116,-1.53082 l 0.54451,-0.73648 -0.60015,-2.0399 -0.6001497,-2.03989 0.5914097,-6.53948 c 0.32625,-3.60739 0.82082,-7.42919 1.10306,-8.52384 1.15139,-4.46563 1.39518,-6.99199 1.03737,-10.75028 -0.35059,-3.68237 -0.357,-3.52415 0.82343,-20.33827 0.48858,-6.95933 1.13946,-13.53517 1.36171,-13.75743 0.33334,-0.33333 16.23945,4.15936 16.75785,4.73327 0.14552,0.1611 0.74193,0.32162 1.32535,0.35669 2.95439,0.17764 11.92259,4.47705 11.65169,5.5859 -0.0941,0.38518 -0.27364,1.2361 -0.39897,1.89095 -0.31289,1.63472 -0.77627,3.47721 -2.46204,9.78958 -3.4352,12.86308 -3.73449,20.86525 -0.88419,23.64086 2.69849,2.62776 3.09279,4.06752 2.55158,9.31685 -0.57354,5.56299 -1.83331,8.48116 -5.47199,12.67556 -2.63213,3.03413 -3.25478,4.21102 -3.26291,6.16742 -0.009,2.06783 1.38602,4.81902 2.64546,5.21875 1.32226,0.41967 2.20081,3.28171 1.44954,4.72216 -0.46792,0.89719 -0.34114,1.16888 0.7602,1.62905 1.93021,0.80649 3.48428,-0.53389 3.22444,-2.78106 -0.0968,-0.8368 -0.0661,-1.03337 0.10317,-0.66146 1.08774,2.38985 0.17899,4.00873 -2.4689,4.39819 l -2.08548,0.30674 0.16994,2.14545 c 0.0935,1.18 0.24203,2.81829 0.33014,3.64066 0.14963,1.39654 0.11542,1.52455 -0.51837,1.93983 -1.82267,1.19425 -13.64639,2.86624 -15.75278,2.2276 z m -4.65402,-13.53703 c 0.10076,-0.47127 0.27225,-0.97592 0.38109,-1.12144 0.62011,-0.82912 1.12202,-4.22265 0.93207,-6.30199 -0.49868,-5.45909 -0.14742,-6.88188 2.13479,-8.64697 1.65545,-1.28035 2.54833,-2.72978 3.10551,-5.04123 2.01162,-8.3451 2.0353,-8.50575 2.0353,-13.80455 0,-3.28566 -0.11622,-4.92379 -0.44111,-6.21718 -0.57729,-2.29821 -0.22197,-6.33577 1.26152,-14.3348 2.70507,-14.58586 3.23124,-20.59714 1.86471,-21.3038 -2.22293,-1.14953 -11.19349,-3.26235 -11.42995,-2.69208 -0.95757,2.3093 -3.47879,24.2738 -3.48039,30.32072 -10e-4,5.30215 2.13504,16.21222 3.65271,18.65313 2.08176,3.34813 1.68014,12.67891 -0.59351,13.78919 -2.12739,1.03887 -2.61491,4.24733 -0.96257,6.33497 1.56726,1.98016 2.10288,5.72627 1.26505,8.84771 -0.44528,1.65896 -0.51107,2.74764 -0.15265,2.52613 0.13433,-0.083 0.32667,-0.53653 0.42743,-1.00781 z m 166.659328,13.04334 c -1.9071,-0.77194 -6.37959,-1.3767 -8.86549,-1.19877 -3.04293,0.21779 -3.15507,0.12948 -3.15507,-2.48455 0,-0.87553 -0.12605,-2.17962 -0.28011,-2.89798 l -0.28011,-1.3061 -1.73916,-0.11075 c -1.55737,-0.0992 -1.81848,-0.19952 -2.49802,-0.96005 -0.98683,-1.10445 -0.99181,-1.67546 -0.005,-0.61951 0.92494,0.99016 1.91234,1.26699 2.96454,0.83116 0.76351,-0.31626 0.778,-0.3516 0.34176,-0.83364 -0.81984,-0.9059 -0.79824,-3.35924 0.0479,-5.43674 0.62427,-1.53283 0.74413,-2.24858 0.8242,-4.92159 0.098,-3.27052 0.50837,-4.7831 2.12331,-7.82557 1.16924,-2.20278 0.85895,-3.5014 -1.41028,-5.90225 -3.16381,-3.34733 -3.33101,-6.24416 -0.57122,-9.89709 l 1.14409,-1.51435 0.0947,-2.93204 c 0.27557,-8.53556 -0.8353,-14.74975 -3.04273,-17.02111 -0.65905,-0.67813 -0.66254,-0.29918 -0.005,0.56266 0.37478,0.49136 0.61739,0.95742 0.53913,1.03567 -0.0782,0.0783 -0.007,0.42038 0.15833,0.76026 0.25406,0.52226 0.24697,0.55222 -0.0457,0.19346 -0.406,-0.49765 -1.53494,-0.91076 -1.53494,-0.56168 0,0.13205 0.23159,1.14559 0.51464,2.25232 0.64404,2.51816 0.95072,12.09422 0.44244,13.81512 -0.367,1.24259 -0.76193,1.34314 -0.9803,0.24959 l -0.15552,-0.77875 -0.1958,0.79375 c -0.10769,0.43656 -0.29298,1.03187 -0.41177,1.32291 -0.39864,0.97676 -1.90521,4.75305 -2.26947,5.68855 -1.28861,3.3094 1.53178,10.58333 4.10359,10.58333 0.12017,0 0.28756,0.18 0.37198,0.39999 0.13697,0.35694 0.0702,0.35694 -0.62001,0 -1.08515,-0.56115 -1.10043,-0.5344 -0.41381,0.72449 0.93755,1.71897 1.28592,3.0084 0.96277,3.56359 -0.22908,0.39358 -0.28003,0.31858 -0.30894,-0.45474 l -0.0346,-0.92604 -0.22081,0.92604 c -0.12145,0.50933 -0.74776,1.93808 -1.39181,3.175 -1.39909,2.68701 -1.66961,3.5195 -1.93448,5.95313 l -0.20157,1.85208 -0.34699,-2.64583 c -0.19083,-1.45521 -0.42317,-5.85724 -0.51631,-9.78228 l -0.16932,-7.13645 -1.1534,-2.48506 c -2.187,-4.71203 -2.72501,-7.7819 -2.74335,-15.6535 -0.005,-2.18324 -0.15734,-4.18905 -0.39163,-5.15938 -0.21083,-0.87312 -0.39201,-2.06375 -0.40264,-2.64583 -0.0193,-1.05697 -0.0201,-1.05612 -0.63233,0.66146 -0.33716,0.94588 -0.92802,2.34091 -1.31303,3.10006 -0.86605,1.70766 -0.86693,2.05647 -0.0237,9.36215 0.82916,7.1834 0.85658,7.01114 -2.26622,14.23717 l -0.8474,1.96085 0.31667,2.80165 c 0.17416,1.54091 0.38116,3.37396 0.45998,4.07345 0.1266,1.12336 0.0601,1.35865 -0.5696,2.01594 -0.60999,0.63669 -0.65055,0.76807 -0.2809,0.90992 0.38631,0.14825 0.37346,0.24805 -0.1215,0.94315 -1.38544,1.94568 -2.25992,6.5379 -2.0233,10.62515 0.19825,3.42442 0.0497,3.64336 -2.67774,3.94775 -2.70483,0.30187 -14.06245,0.30199 -20.11687,2.2e-4 -2.94679,-0.14688 -7.76294,-0.38464 -10.70254,-0.52837 -8.8896,-0.43466 -27.486618,0.33159 -38.440628,1.58385 -16.17546,1.84918 -24.61832,1.10939 -27.44198,-2.40457 -2.43736,-3.03322 -3.24224,-12.94601 -1.06822,-13.15608 0.95966,-0.0927 1.11735,-0.55391 0.35269,-1.03145 -0.97293,-0.6076 -0.94695,-1.75927 0.0869,-3.85159 1.16075,-2.34917 1.17029,-2.90853 0.10309,-6.04536 -1.36108,-4.00065 -1.26434,-6.10983 0.39906,-8.70014 1.41337,-2.20096 1.38696,-1.88522 0.50915,-6.08542 -0.68167,-3.2617 -1.09235,-4.65652 -3.155,-10.71563 -0.94123,-2.76489 -1.93965,-5.86052 -2.21872,-6.87916 l -0.50739,-1.85209 0.15067,3.57188 c 0.0829,1.96453 0.26451,4.52437 0.40367,5.68854 0.13916,1.16417 0.32296,2.9501 0.40846,3.96875 0.11641,1.38704 0.48716,2.64399 1.47652,5.00592 1.47811,3.52872 1.55372,4.73204 0.40287,6.41159 -0.79603,1.16174 -0.89257,0.87151 -1.11315,-3.34658 -0.20192,-3.86109 -0.26114,-4.09881 -0.828,-3.32359 -0.3473,0.47496 -0.37532,0.43552 -0.37623,-0.52958 -0.001,-1.14502 -0.55601,-2.20536 -2.13286,-4.0754 -2.53296,-3.00394 -2.47978,-6.08484 0.20798,-12.04861 l 1.31166,-2.91042 0.17507,-4.36562 c 0.0963,-2.40109 0.36252,-5.91344 0.59165,-7.80521 0.27868,-2.301 0.35965,-4.28663 0.2446,-5.99847 -0.14545,-2.16399 -0.10214,-2.66548 0.2806,-3.24961 0.35036,-0.53473 0.42024,-1.04739 0.30939,-2.26988 -0.15533,-1.71303 0.16245,-1.93841 0.45832,-0.32507 0.10038,0.54731 0.77956,2.48339 1.5093,4.30241 5.90199,14.71172 6.15636,15.93269 4.98854,23.94479 -0.92812,6.36765 -0.91499,7.59134 0.10335,9.62742 0.41121,0.82219 0.66798,1.93588 0.78679,3.41261 0.10314,1.28196 0.50799,3.20442 0.97507,4.63021 1.11368,3.39955 1.15672,2.94161 -0.97116,10.33442 -0.98163,3.41044 -0.99557,3.92481 -0.19479,7.18492 0.77894,3.17121 1.74949,5.669 2.81303,7.23959 l 0.78156,1.15417 1.35592,-0.17568 c 0.74576,-0.0966 1.77265,-0.28343 2.28197,-0.41514 0.50932,-0.1317 2.09119,-0.43497 3.51525,-0.67393 3.00331,-0.50396 2.92996,-0.27311 1.11326,-3.50361 -0.96107,-1.70899 -1.20494,-2.44244 -1.47109,-4.42449 -0.17631,-1.31295 -1.06084,-4.80253 -1.9771,-7.79987 -3.76036,-12.3012 -3.90315,-13.42877 -2.45822,-19.41279 0.59345,-2.45772 0.84164,-4.13142 0.8486,-5.72262 0.0105,-2.40686 0.11502,-2.02883 -2.96471,-10.72576 -2.1896,-6.18327 -2.21808,-6.95922 -0.66482,-18.11383 1.0537,-7.56706 0.75224,-9.51075 -2.72241,-17.55272 -1.08512,-2.5115 -2.31869,-6.08734 -3.42278,-9.92187 -2.50385,-8.69598 -4.15895,-13.43264 -6.94859,-19.88583 -1.04389,-2.41478 -1.97877,-5.13981 -2.46456,-7.18382 -0.31031,-1.30568 -0.66446,-2.2737 -0.787,-2.15116 -0.12254,0.12254 -0.11281,0.63594 0.0216,1.14088 0.13444,0.50494 0.43188,2.58495 0.66098,4.62224 0.2291,2.03729 0.52983,4.359 0.66828,5.15936 0.42941,2.48242 0.75781,5.62625 1.5813,15.13826 0.43736,5.05183 0.93386,10.02474 1.10333,11.05093 0.36751,2.22536 0.31502,2.31014 -0.99541,1.60779 -0.55917,-0.29969 -1.14121,-0.54489 -1.29343,-0.54489 -0.8644,0 -3.37632,-2.03242 -4.82266,-3.90205 -1.67069,-2.15966 -1.68703,-2.17095 -8.26044,-5.71138 -4.15925,-2.24016 -13.95096,-5.73241 -16.07279,-5.73241 -0.98681,0 -1.15016,-0.0726 -1.04233,-0.46302 0.0703,-0.25466 0.20472,-1.02856 0.29863,-1.71979 0.16999,-1.25122 0.17523,-1.25677 1.1857,-1.25677 h 1.01497 l 0.2991,-1.78594 c 0.1645,-0.98226 0.95643,-5.17922 1.75984,-9.32656 2.54394,-13.132222 2.73056,-14.126912 2.90394,-15.478112 1.5268,-11.89925 8.32774,-24.12255 16.39427,-29.46539 5.42458,-3.59296 22.15127,-9.64615 29.36488,-10.6268 3.28463,-0.44653 3.30729,-0.45459 3.30729,-1.17658 0,-0.43522 0.31956,-0.88555 0.98212,-1.38402 1.79785,-1.35258 3.10578,-2.99109 4.45563,-5.58176 1.85482,-3.55984 2.27222,-3.67444 8.46776,-2.32497 7.58815,1.65281 27.472228,1.09852 33.337398,-0.92931 4.06084,-1.404 4.58017,-1.32249 5.71224,0.89655 0.6046,1.18512 5.46244,6.53048 5.93978,6.53587 0.47855,0.005 1.17408,0.93825 1.45315,1.94896 0.27216,0.98569 0.6948,1.20788 3.07466,1.61641 0.46683,0.0801 2.25277,0.49574 3.96875,0.92356 3.02255,0.75357 7.94192,1.65042 10.92518,1.99178 9.53623,1.09118 17.46432,5.74273 23.48085,13.77663 2.40818,3.21565 5.19524,9.26872 9.86158,21.41782 0.27946,0.7276 1.09288,2.81119 1.8076,4.6302 1.54053,3.92077 2.54063,7.160222 2.94064,9.525002 0.6456,3.81665 1.95316,9.52499 2.18182,9.52499 0.13395,0 0.45652,-0.11398 0.71682,-0.25329 0.42551,-0.22772 1.07944,0.94409 1.07944,1.93431 0,0.2229 -3.15037,1.78095 -5.4177,2.67939 -7.1967,2.85171 -15.46402,7.76665 -15.51199,9.22192 -0.0687,2.08452 -0.17998,2.74602 -0.59679,3.54812 -0.69847,1.34412 -4.22221,3.9563 -8.40696,6.23217 l -1.7553,0.95463 -0.15238,-0.7619 c -0.0838,-0.41905 -0.23234,-3.77707 -0.33006,-7.46227 -0.19648,-7.40936 -0.39411,-8.56529 -0.86664,-5.06893 -0.32065,2.37258 -0.6823,3.81807 -2.97152,11.87673 -1.92382,6.77237 -2.80999,10.93309 -3.26539,15.33142 -0.52037,5.02586 -1.156,7.61967 -3.98115,16.24587 -3.04756,9.30529 -3.03076,9.12145 -1.453,15.901 1.76068,7.56551 1.94721,8.97804 1.58558,12.00686 -0.36848,3.08612 -2.46105,10.99345 -5.67988,21.46293 -0.92697,3.01504 -0.96037,3.25013 -0.66301,4.66606 l 0.31313,1.49106 1.49163,0.17385 c 5.91633,0.68956 5.97248,0.6619 6.23851,-3.0727 0.24991,-3.50832 0.338,-3.80689 1.57244,-5.33003 2.35018,-2.89979 2.37185,-3.00387 1.39462,-6.69638 -0.34124,-1.2894 -1.06121,-4.01123 -1.59993,-6.04852 l -0.97948,-3.70417 1.64027,-3.96875 c 3.32726,-8.05053 3.70558,-9.43541 3.85869,-14.12517 0.1279,-3.91793 0.1998,-4.36316 1.39343,-8.629 0.69222,-2.47385 1.54356,-5.68854 1.89187,-7.14375 l 0.6333,-2.64583 0.0712,5.89945 c 0.0412,3.40968 0.17175,5.83732 0.3094,5.75225 0.13099,-0.081 0.39658,0.006 0.59021,0.19237 1.51798,1.46406 3.5195,2.33705 3.32727,1.45124 -0.87916,-4.0513 -1.2137,-6.23571 -1.22576,-8.00364 -0.0142,-2.0834 -0.62118,-5.62284 -1.58784,-9.25922 -0.55646,-2.09329 -0.4948,-2.51474 0.36797,-2.51474 0.51615,0 4.19929,-1.34103 6.87876,-2.50457 0.43656,-0.18957 1.98437,-0.73256 3.43958,-1.20665 2.73516,-0.89107 6.82946,-2.39042 10.05417,-3.68187 1.01864,-0.40796 3.39642,-1.24829 5.28394,-1.86741 1.88753,-0.61912 4.09018,-1.45322 4.8948,-1.85355 2.85887,-1.42243 3.04068,-1.3768 3.31538,0.83208 l 0.18555,1.49198 -0.95286,0.31447 c -0.52407,0.17296 -0.95285,0.43712 -0.95285,0.58701 0,0.1499 0.41133,3.08746 0.91406,6.52792 2.37546,16.25636 3.12296,32.0058 2.06126,43.42934 -0.18258,1.96453 -0.45408,6.52375 -0.60333,10.13161 -0.30034,7.2603 -0.51875,8.81674 -2.26868,16.16646 -0.66197,2.78028 -1.42951,6.23095 -1.70564,7.66816 -0.88553,4.60891 -3.08251,7.1406 -6.07059,6.99544 l -1.71979,-0.0836 v 2.93295 c 0,3.51924 -0.26303,4.1023 -1.60548,3.55892 z m 5.34191,-15.94746 c -1.17041,-5.59216 -0.58011,-9.60302 1.96443,-13.34755 2.53245,-3.72674 3.08331,-8.94211 1.57379,-14.89998 -2.0324,-8.02161 -2.4375,-16.50712 -1.4968,-31.35313 0.29744,-4.69408 0.41975,-8.7001 0.31505,-10.31875 -0.19955,-3.0852 -0.89468,-9.70663 -1.03359,-9.84554 -0.14141,-0.14141 -5.19308,1.23531 -5.97422,1.62813 -0.36992,0.18603 -1.80369,0.73144 -3.18613,1.21202 -1.38245,0.48058 -2.60542,0.95224 -2.71772,1.04814 -0.45415,0.38782 1.12404,9.08775 2.88051,15.87913 0.65864,2.54661 1.61016,6.23755 2.11449,8.20208 0.50433,1.96453 1.11678,4.16719 1.361,4.89479 0.63016,1.87742 0.62162,8.25976 -0.0164,12.2789 -0.66144,4.16647 -0.16661,6.74565 2.33969,12.19506 2.24613,4.88375 2.53852,8.53948 0.92797,11.60227 -1.82279,3.46638 -1.84495,4.84034 -0.15829,9.81473 0.66346,1.95669 1.22009,3.62356 1.23697,3.70416 0.0169,0.0806 0.0849,-0.0603 0.15107,-0.31321 0.0662,-0.25287 -0.0606,-1.32443 -0.28179,-2.38125 z M 83.365642,226.2571 c 1.74199,-0.36189 3.3791,-0.60258 3.63802,-0.53487 0.54559,0.14267 0.54619,0.14089 0.23294,-0.68301 -0.1308,-0.34404 -0.31168,-1.63172 -0.40195,-2.8615 -0.23052,-3.14031 -0.34279,-4.07184 -1.35375,-11.2318 -0.49312,-3.4925 -1.19436,-8.73125 -1.55832,-11.64167 -0.36395,-2.91042 -1.09553,-7.73245 -1.62573,-10.71562 -1.41676,-7.97144 -2.18685,-13.40537 -2.51228,-17.72709 -0.57247,-7.60252 -0.70811,-8.5545 -4.39209,-30.82396 -0.23803,-1.43891 -0.42609,-4.68474 -0.47522,-8.20208 -0.0831,-5.95196 -0.20338,-6.95934 -1.76868,-14.81667 -0.2899,-1.45521 -0.70284,-4.4913 -0.91765,-6.74687 -0.21481,-2.25557 -0.62051,-5.41072 -0.90156,-7.01145 -0.28105,-1.60073 -0.81044,-5.176632 -1.17642,-7.946442 -1.02734,-7.77517 -3.08628,-17.5323 -5.74881,-27.24314 -1.32733,-4.84103 -1.12918,-4.6235 -2.8733,-3.15445 -4.80623,4.04824 -7.07189,6.98218 -9.79467,12.68373 l -1.64053,3.4353 0.5836,1.5875 c 1.54293,4.19711 2.40187,6.93252 2.80359,8.92848 0.70321,3.4939 1.34353,5.72982 3.69417,12.899642 1.21659,3.71079 2.7622,9.00906 3.43468,11.77395 0.67249,2.7649 1.56932,6.45584 1.99295,8.20209 1.29977,5.35771 1.42063,6.47255 1.16081,10.70807 -0.54221,8.839 -0.45182,9.53523 2.42392,18.67091 1.8608,5.91141 2.0416,7.70721 1.43365,14.24012 -0.37277,4.0057 -0.061,6.80719 1.46154,13.13402 1.4241,5.91771 3.10426,12.98375 4.15223,17.4625 0.42562,1.81901 1.06288,5.27183 1.41614,7.67292 1.61393,10.97004 2.17339,13.75777 3.69887,18.43094 0.7917,2.42531 0.86635,2.54905 1.41034,2.33783 0.23994,-0.0932 1.86152,-0.46548 3.60351,-0.82738 z m 17.456418,-1.4562 c 2.0449,-0.16512 3.8173,-0.38944 3.93868,-0.4985 0.27893,-0.2506 -0.24132,-26.46197 -0.74826,-37.69815 -0.21009,-4.65667 -0.50689,-11.80042 -0.65956,-15.875 -0.15266,-4.07458 -0.451,-10.86115 -0.66296,-15.08125 -0.21197,-4.2201 -0.51048,-10.53042 -0.66336,-14.02292 -0.15287,-3.4925 -0.33425,-7.06437 -0.40304,-7.9375 -0.4142,-5.25685 -0.94531,-16.37177 -1.17577,-24.60625 -0.14662,-5.23874 -0.33012,-10.656082 -0.40777,-12.038532 -0.0777,-1.38245 -0.319648,-7.3951 -0.537768,-13.36146 -0.47986,-13.12602 0.0551,-11.25574 -3.96776,-13.8725 -0.66256,-0.43098 -1.49949,0.0836 -5.50132,3.38213 -5.9148,4.87536 -7.00128,5.24765 -7.45019,2.55287 -0.21376,-1.28318 -0.79878,-2.8534 -2.82285,-7.5767 -0.85037,-1.98437 -1.54612,-3.74054 -1.54612,-3.9026 0,-0.16206 -0.11906,-0.29466 -0.26458,-0.29466 -0.35261,0 -0.44557,-0.46527 1.17405,5.87637 1.90707,7.46716 2.66754,13.12117 4.24515,31.562182 0.22408,2.61937 0.52573,5.77453 0.67033,7.01145 0.14459,1.23692 0.49929,5.16598 0.78822,8.73124 1.2445,15.35643 1.61844,19.62829 1.98025,22.62188 0.21106,1.74625 0.74749,6.27063 1.19207,10.05417 0.44458,3.78354 1.0407,8.6651 1.3247,10.84791 0.6731,5.17316 1.46538,12.61797 2.25258,21.16667 0.72041,7.82342 1.52915,15.31821 2.11274,19.57917 0.90832,6.63192 2.51093,21.4259 2.51508,23.21719 0.001,0.54871 -0.1122,0.54471 4.617458,0.16279 z m 35.83671,-0.82327 c 1.89475,-5.86521 3.84306,-18.03511 4.26772,-26.65775 0.32449,-6.58873 0.7103,-9.47219 1.9825,-14.81667 1.94917,-8.18839 2.03456,-10.988 0.51248,-16.80104 -1.91228,-7.30325 -1.6416,-10.10891 2.14424,-22.225 1.80319,-5.77089 2.74707,-9.74448 3.17385,-13.36146 1.22165,-10.35357 1.85869,-13.98788 4.1044,-23.41562 0.45062,-1.89177 1.10135,-4.68974 1.44605,-6.21771 3.09135,-13.702862 3.82211,-17.092262 4.0711,-18.882402 0.15775,-1.1342 0.35347,-2.32772 0.43492,-2.65227 0.33407,-1.33103 -3.71681,-7.47364 -6.85573,-10.39581 -1.98603,-1.84889 -5.79214,-5.05023 -6.98623,-5.87616 -1.04969,-0.72605 -1.01083,-0.81479 -1.37757,3.14623 -0.63438,6.85172 -1.25012,12.29793 -2.52284,22.31451 -0.21889,1.72272 -0.39942,4.28256 -0.40118,5.68854 -0.003,2.38474 -0.52124,6.05133 -2.0816,14.727162 -0.2879,1.60072 -0.8368,4.90321 -1.21978,7.33886 -0.38299,2.43565 -0.98005,5.59081 -1.32681,7.01146 -1.33235,5.45855 -1.39801,7.4946 -0.4886,15.15071 0.72302,6.0869 0.40535,11.40664 -1.61944,27.11979 -0.52505,4.07458 -1.18662,10.14677 -1.47015,13.49375 -0.53687,6.33749 -1.18757,11.8692 -2.16307,18.38854 -0.95467,6.38014 -0.85626,12.9622 0.27493,18.38854 0.87901,4.21663 0.99808,6.66013 0.4178,8.57419 -0.11359,0.37468 -0.0917,0.5741 0.0531,0.48459 0.13535,-0.0836 0.89825,-0.0725 1.69533,0.0248 3.4608,0.42236 3.62812,0.39898 3.93461,-0.54976 z m -14.52392,-0.20116 c 0,-0.43752 0.1739,-1.95557 0.38644,-3.37344 0.21255,-1.41787 0.50995,-3.94716 0.66089,-5.62065 0.15094,-1.67349 0.51077,-5.36443 0.79962,-8.20209 1.71812,-16.87908 1.95318,-24.65873 1.07828,-35.68767 -0.85648,-10.79658 -0.74445,-19.82633 0.38443,-30.98733 0.21343,-2.11005 0.6908,-7.22974 1.06083,-11.37708 0.37004,-4.14735 0.90727,-10.00356 1.19386,-13.01382 0.28658,-3.01025 0.52625,-6.87979 0.5326,-8.59895 0.006,-1.71917 0.1224,-4.37592 0.25791,-5.90389 0.23648,-2.666372 0.45416,-6.854072 1.05902,-20.372922 0.15301,-3.41974 0.34034,-7.52739 0.41631,-9.12812 0.15289,-3.22188 -0.23357,-3.40086 -0.53206,-0.24641 -0.0973,1.02865 -0.34907,2.51693 -0.55941,3.30729 -0.21035,0.79037 -0.38386,1.74988 -0.38558,2.13224 -0.005,1.09265 -0.75677,1.56412 -1.29446,0.81176 -1.08512,-1.51836 -1.29825,-1.70579 -2.03001,-1.78519 -0.48547,-0.0527 -1.07926,-0.42446 -1.57347,-0.98516 -1.61237,-1.82932 -6.88501,-5.25716 -7.35836,-4.78381 -0.0932,0.0932 -0.33212,0.0345 -0.5309,-0.13048 -0.35684,-0.29615 -1.37842,0.24935 -3.344,1.78562 l -0.64993,0.50798 0.32908,4.98475 c 0.18099,2.74161 0.43791,14.21209 0.57092,25.489952 0.133,11.27786 0.30577,22.46973 0.38391,24.87082 0.0781,2.4011 0.21372,8.83047 0.30129,14.2875 0.0876,5.45704 0.20743,10.21954 0.26638,10.58334 0.4158,2.56604 0.41217,39.71896 -0.005,53.04896 -0.25059,8.00364 -0.41654,15.50458 -0.36879,16.66875 l 0.0868,2.11666 3.15039,0.0636 c 1.73272,0.035 3.21108,0.12427 3.28525,0.19844 0.59164,0.59164 2.42791,0.092 2.42791,-0.66064 z m 46.46011,-29.83003 c -0.19115,-3.32962 -0.69304,-6.1804 -1.50533,-8.55043 -0.27763,-0.81005 -0.50478,-1.62475 -0.50478,-1.81044 0,-0.37323 -1.87678,-2.90525 -2.1667,-2.92317 -0.10028,-0.006 0.11939,0.85193 0.48816,1.90695 0.36876,1.05503 0.836,2.75167 1.03831,3.77032 0.89269,4.49481 2.47423,10.70895 2.72671,10.7137 0.0562,0.001 0.0218,-1.39706 -0.0764,-3.10693 z m -0.0832,-13.62604 c -0.6847,-0.74578 -1.97417,-3.33159 -2.57283,-5.15938 -0.25023,-0.76398 -0.54242,-1.38906 -0.6493,-1.38906 -0.3042,0 1.10157,4.03218 1.69207,4.85339 0.94786,1.31817 1.76357,2.29036 1.92173,2.29036 0.0852,0 -0.0911,-0.26789 -0.39167,-0.59531 z M 36.540842,126.59861 c 0.83564,-2.81245 0.80777,-6.94735 -0.0833,-12.3579 -2.38863,-14.503652 -2.36883,-14.839582 1.41249,-23.966502 0.9093,-2.19476 1.74009,-4.50435 1.8462,-5.13243 0.10612,-0.62808 0.37323,-1.5708 0.59358,-2.09495 0.32733,-0.77859 0.35958,-1.4856 0.17618,-3.8634 -0.48841,-6.33233 -0.3744,-6.76081 2.62217,-9.85542 1.84539,-1.90577 2.22896,-2.72039 0.79694,-1.69255 -0.41162,0.29544 -1.43643,0.73208 -2.27735,0.97032 -1.06528,0.30179 -1.69666,0.66001 -2.08201,1.18121 -0.30419,0.41144 -0.946,0.95967 -1.42624,1.2183 -0.98157,0.52862 -1.82401,1.87613 -2.08285,3.33162 -0.22695,1.27619 -1.16405,2.92304 -2.66036,4.67532 -1.7602,2.06129 -2.48929,3.4462 -2.93195,5.56924 -0.21605,1.03618 -0.57065,2.40775 -0.78801,3.04795 -1.21538,3.57985 -1.49408,5.33365 -1.70611,10.7363 -0.18741,4.775422 -0.29594,5.682622 -0.90773,7.587282 -0.38219,1.18984 -0.80606,3.04019 -0.94194,4.11191 -0.13588,1.07171 -0.56624,3.13431 -0.95637,4.58354 -0.94048,3.49371 -1.37408,5.48558 -1.47969,6.79748 l -0.087,1.08023 2.77813,1.11219 c 3.2191,1.28873 5.56848,2.3902 7.80521,3.65937 1.87299,1.06277 1.85489,1.06808 2.37997,-0.69911 z m 142.262598,-5.24356 c 1.79273,-1.0605 3.31573,-1.97059 3.38444,-2.0224 0.0687,-0.0518 -0.0866,-0.65317 -0.34512,-1.33631 -2.42991,-6.421 -2.61262,-7.47887 -1.79496,-10.3928 0.9212,-3.28299 0.65649,-4.87943 -2.43111,-14.661782 -1.80503,-5.71882 -2.1771,-6.5367 -4.38009,-9.62821 -1.70625,-2.39443 -3.21219,-4.92382 -3.21219,-5.39523 0,-0.11604 -0.4185,-0.83136 -0.92999,-1.5896 -0.90951,-1.34825 -0.92622,-1.42053 -0.75872,-3.28066 l 0.17126,-1.90203 -1.51249,-1.44173 c -1.46953,-1.40078 -2.30393,-1.93256 -4.01334,-2.5578 -0.45407,-0.16608 -0.95753,-0.59157 -1.11881,-0.94554 -0.2905,-0.63757 -0.83374,-0.88618 -0.83374,-0.38155 0,0.14411 0.77081,1.78122 1.71293,3.63802 4.02653,7.93584 4.51058,11.92282 2.7341,22.51994 l -0.32623,1.94603 2.29726,4.53626 c 1.26349,2.494952 2.65744,5.525072 3.09768,6.733622 0.44023,1.20854 1.22612,3.11354 1.74642,4.23332 1.51122,3.25242 1.93766,9.80963 0.90461,13.90959 -0.28881,1.14622 -0.52511,2.12985 -0.52511,2.18586 0,0.056 0.64658,-0.42481 1.43684,-1.06849 0.79026,-0.64368 2.90362,-2.038 4.69636,-3.09851 z M 100.76972,63.225878 c 0.25466,-0.0487 0.46302,0.0227 0.46302,0.15875 0,0.13601 0.30826,0.18836 0.68503,0.11634 0.6231,-0.11911 0.67691,-0.062 0.59531,0.632 l -0.0897,0.76296 5.86883,0.0671 5.86882,0.0672 0.18786,-0.59633 c 0.10332,-0.32797 0.5282,-1.0104 0.94419,-1.5165 1.29174,-1.57155 1.28404,-1.57449 -4.33689,-1.65379 l -5.09323,-0.0719 0.0971,-2.57969 0.0971,-2.57969 -0.89082,-0.0271 c -0.48995,-0.0149 -2.2783,-0.0707 -3.97411,-0.12406 -3.695418,-0.11626 -3.614338,-0.17754 -3.718168,2.81014 l -0.0777,2.23578 -2.56472,0.13229 -2.56472,0.13229 1.32913,1.39159 c 0.73102,0.76537 1.42521,1.3322 1.54266,1.25962 0.11744,-0.0726 0.19721,0.0751 0.17726,0.3282 -0.031,0.39383 0.24983,0.47037 1.9481,0.53089 1.09141,0.0389 2.16297,0.10135 2.38125,0.13878 0.25846,0.0443 0.443008,-0.20998 0.529168,-0.72917 0.0797,-0.48026 0.31638,-0.83244 0.59531,-0.88579 z m 0.52917,-0.64445 c -1.346068,-0.13975 -2.447398,-0.35779 -2.447398,-0.48454 0,-0.12674 0.32742,-0.17397 0.72761,-0.10495 0.888268,0.15321 2.850068,0.34244 3.836448,0.37007 0.40019,0.0112 0.72761,0.13944 0.72761,0.28496 0,0.14552 -0.0893,0.24747 -0.19844,0.22657 -0.10914,-0.0209 -1.29976,-0.15236 -2.64583,-0.29211 z m 2.44739,-2.51941 c -1.32357,-0.14025 -1.04848,-2.70672 0.29012,-2.70672 h 0.90051 v 1.3073 c 0,1.45171 -0.0576,1.51947 -1.19063,1.39942 z m -5.177178,-0.43148 c -0.0721,-0.0721 -0.0851,-0.61352 -0.0289,-1.20316 0.16409,-1.72059 1.929508,-1.66966 1.816438,0.0524 -0.0697,1.06213 -1.168738,1.76962 -1.787588,1.15076 z m 2.530098,-0.68977 c -0.33673,-0.54483 0.50787,-1.03013 1.07326,-0.61671 0.44107,0.32252 0.4575,0.41008 0.11733,0.62514 -0.5172,0.32696 -0.98536,0.32365 -1.19059,-0.008 z M 41.457412,230.57287 c -0.34847,-0.60837 -1.09813,-1.96932 -1.6659,-3.02435 -1.02431,-1.90334 -1.45427,-2.40592 -1.18836,-1.38906 0.15865,0.60665 -0.13765,0.6964 -0.57186,0.17322 -0.74384,-0.89627 -0.63822,-1.88536 0.32432,-3.03745 0.51302,-0.61404 1.01604,-1.37886 1.11785,-1.69961 0.15979,-0.50347 1.52641,-2.70458 2.17874,-3.50914 0.11941,-0.14727 0.36313,-0.50446 0.54159,-0.79375 0.39637,-0.64253 0.25452,0.32587 -0.44616,3.0459 -0.6043,2.3459 -0.58521,7.78053 0.0343,9.76843 0.55455,1.77943 0.48506,1.87918 -0.32453,0.46581 z m 1.21672,-39.72648 c -0.38607,-0.38608 -0.41253,-0.5278 -0.13229,-0.70871 0.28947,-0.18688 0.28796,-0.26633 -0.009,-0.45765 -0.25083,-0.16176 -0.27061,-0.28612 -0.0657,-0.41279 0.32623,-0.20163 0.88961,1.02135 0.76603,1.6629 -0.0645,0.33465 -0.15447,0.32118 -0.55939,-0.0838 z M 161.25801,147.44592 c -0.0921,-1.16417 -0.12185,-2.16628 -0.0661,-2.22691 0.28642,-0.31173 0.38173,0.38015 0.31144,2.26067 l -0.0779,2.0829 z"
         id="path38" />
      <path
         style="fill:#ffffff;stroke:none;stroke-width:0.264583px;stroke-linecap:butt;stroke-linejoin:miter;stroke-opacity:1"
         d="m 99.124255,64.728423 c 0.656986,0.235033 2.673465,0.189536 4.701085,0.141739 l 1.29929,-2.693079 -6.543715,-0.661459 z"
         id="path888"
         sodipodi:nodetypes="ccccc" />
      <path
         style="fill:#000000;stroke:none;stroke-width:0.264583px;stroke-linecap:butt;stroke-linejoin:miter;stroke-opacity:1"
         d="m 97.39636,60.927088 8.4666,0.26462 4.10449,-3.455844 -2.55134,-4.441222 -10.890441,0.236236 z"
         id="path894" />
      <path
         style="fill:#df4212;fill-opacity:1;stroke:none;stroke-width:0.264583px;stroke-linecap:butt;stroke-linejoin:miter;stroke-opacity:1"
         d="m 15.824637,123.38504 c -0.48532,8.28009 -1.32578,10.7595 -1.33635,26.79377 5.72643,1.22713 11.289315,3.28496 16.842863,5.06529 3.80156,1.2187 9.36031,3.50744 12.976302,5.17905 0.709176,0.32784 -0.254847,-0.79435 0.449115,-0.42219 l 5.21176,2.40543 0.26726,-5.61266 -1.737246,-17.3057 -3.140434,-1.06908 c -0.713005,-0.24272 -1.86156,-1.33783 -3.54131,-3.00678 -0.91666,-0.91076 -1.33367,-2.41699 -3.47451,-3.54132 -2.67733,-1.40608 -5.51893,-3.16424 -9.22078,-4.81085 -2.5715,-1.14382 -6.50948,-2.78361 -9.9558,-3.47451 -1.09386,-0.21929 -3.34087,-0.20045 -3.34087,-0.20045 z"
         id="path896"
         sodipodi:nodetypes="ccssccccssssac" />
      <path
         style="opacity:1;fill:#df4212;fill-opacity:1;stroke:#df4212;stroke-width:0.264583px;stroke-linecap:butt;stroke-linejoin:miter;stroke-opacity:1"
         d="m 44.187941,160.24276 -3.354534,14.93006 c -0.21801,1.0727 -0.740367,2.66916 -0.911596,3.44145 -0.782081,3.52742 -0.807894,3.93745 -1.309024,9.26799 -0.258524,0.18959 -0.5442,7.06816 1.93712,8.83521 1.704065,1.21354 2.722365,2.77582 2.645845,4.86644 -0.161754,4.41929 -1.013249,9.17044 -1.84264,10.81956 -1.503364,2.9892 -5.575143,7.60677 -5.575143,7.60677 -3.399416,4.10085 -1.332103,7.06101 0.283488,9.44941 1.404891,1.14778 3.016011,2.24056 2.59861,3.87427 -0.672721,0.99392 -0.992962,3.47725 2.244215,2.69306 1.206616,-0.62972 1.747423,-1.38923 1.559155,-2.76394 -0.09162,-0.66903 -0.01779,-0.63398 -0.604426,-2.0075 -0.159664,-0.37383 -0.602958,-1.17751 -1.095648,-1.95315 -0.570577,-0.89827 -1.166946,-2.04886 -1.205626,-2.15784 -0.468483,-1.31995 -0.657655,-3.48705 0.33073,-5.10268 l 2.45685,-4.016 c 0.873157,-1.42727 2.17627,-2.43989 2.36235,-2.36236 0.564456,0.23519 1.110974,-2.15659 1.37018,-3.35452 0.415416,-1.91984 1.113587,-3.76819 1.60639,-5.66965 0.483028,-1.86373 1.761996,-4.83049 1.464651,-6.7327 -0.235806,-1.50853 -0.426105,-1.90813 -1.322894,-3.09467 -1.478325,-1.95596 -1.999338,-1.65144 -2.693087,-4.67746 -0.05352,-0.23346 0.382442,-4.24386 1.13393,-6.00038 0.718716,-1.67991 1.675847,-1.91356 2.3151,-5.00818 0.502441,-2.43231 0.121099,-5.01167 0.28348,-7.51228 0.211123,-3.25121 0.8977,-9.73288 0.8977,-9.73288 l 0.47247,-7.08706 -5.66965,-1.22842 z"
         id="path898"
         sodipodi:nodetypes="ccscsssccccssssssssssssssscccc" />
      <path
         style="fill:#df4212;fill-opacity:1;stroke:#df4212;stroke-width:0.264583px;stroke-linecap:butt;stroke-linejoin:miter;stroke-opacity:1"
         d="m 164.4528,156.65825 c -0.27456,0.325 -2.72685,-0.15738 -2.04099,2.45812 0.86695,3.02989 1.69942,6.07702 2.07134,9.35443 1.43034,7.1727 1.49086,8.19375 3.38476,10.98167 0.88842,1.30779 1.43719,1.51844 1.94729,2.08344 1.44684,1.60255 1.7504,1.72876 2.15149,4.24059 l 0.61867,4.12276 0.65087,9.64162 c 0.187,2.77017 -1.14286,3.57122 -1.75682,4.45315 -2.97059,4.26708 -1.53607,6.13821 -0.10192,7.86082 1.10741,1.33015 1.49139,1.64877 2.13862,2.41081 1.2145,1.42992 1.25044,3.43493 -0.20566,5.88808 -1.38326,2.33044 -1.64755,4.66687 -1.81148,8.38053 -0.14837,3.36108 -0.37371,2.53653 -1.06908,4.3485 -0.53463,1.39312 -0.48216,2.34086 -0.31195,3.02036 0.24399,0.97407 0.85451,1.39695 1.38103,1.79048 -0.80168,0.40104 -1.41787,0.59216 -2.49923,0.30573 -1.14326,-0.30283 -2.19325,-1.3073 -2.37844,-2.91161 -0.59762,-5.17725 -0.0486,-6.52972 0.83354,-8.42709 1.80364,-3.87941 2.44133,-6.01579 1.97279,-7.38164 -0.2944,-0.85819 -0.60321,-2.36397 -1.80407,-3.50149 -0.1986,-0.18812 -3.99675,-3.59728 -2.07133,-8.4858 0.78236,-1.98637 1.93714,-3.95873 2.50406,-5.85588 0.47113,-1.57662 0.5378,-3.13483 0.16863,-4.434 -1.14312,-4.02281 -3.49951,-13.5431 -3.49951,-13.5431 0,0 -0.48389,-2.10439 -1.06682,-2.98609 -0.66308,-1.00293 -2.64995,-2.44695 -2.64995,-2.44695 l 0.26727,-14.76664 0.28348,-12.6476 4.2601,4.42906 z"
         id="path900"
         sodipodi:nodetypes="sccssccsssssssscsssssssscsccccs" />
      <path
         style="fill:#ffffff;stroke:none;stroke-width:0.264583px;stroke-linecap:butt;stroke-linejoin:miter;stroke-opacity:1"
         d="m 159.55991,143.791 -0.0668,6.48129 4.00904,-0.80181 0.26727,-6.61492 z"
         id="path902" />
      <path
         style="opacity:1;fill:#df4212;fill-opacity:1;stroke:none;stroke-width:0.264583px;stroke-linecap:butt;stroke-linejoin:miter;stroke-opacity:1"
         d="m 161.09051,139.08712 0.44706,7.33141 c -0.4706,3.89517 0.47353,7.65688 0.75596,11.48102 l 28.72205,-10.80379 4.82333,-2.00015 c -0.21329,-9.35129 -0.82009,-18.76471 -3.40178,-28.48996 -8.24386,3.52289 -16.9519,6.50924 -20.64695,11.62277 -0.97885,1.35462 -0.0849,3.34701 -1.37017,4.77195 -2.70742,2.24638 -3.21832,2.50595 -4.83083,3.48566 -1.47751,0.89767 -3.05163,1.77734 -4.49867,2.60109 z"
         id="path867-4"
         sodipodi:nodetypes="ccccccscsc" />
    </g>
  </g>
</svg>
